<?xml version="1.0" standalone="no"?>
<!DOCTYPE svg PUBLIC "-//W3C//DTD SVG 20010904//EN"
 "http://www.w3.org/TR/2001/REC-SVG-20010904/DTD/svg10.dtd">
<svg version="1.0" xmlns="http://www.w3.org/2000/svg"
 width="540.000000pt" height="559.000000pt" viewBox="0 0 540.000000 559.000000"
 preserveAspectRatio="xMidYMid meet">

<g transform="translate(0.000000,559.000000) scale(0.100000,-0.100000)"
fill="#ff3f61" stroke="none">
<path d="M3264 5579 c-17 -28 -4 -115 28 -179 18 -36 34 -68 36 -72 2 -3 -34
10 -78 29 -45 19 -132 47 -193 62 l-112 28 -8 40 c-11 58 -43 84 -104 85 -78
0 -143 -44 -143 -97 0 -37 39 -86 86 -106 49 -22 87 -19 135 9 23 13 36 13 89
3 71 -14 210 -59 225 -72 5 -5 -5 -9 -27 -9 -117 0 -152 -72 -58 -120 48 -24
164 -27 255 -6 l60 15 50 -31 c99 -61 271 -212 220 -194 -134 48 -536 146
-603 146 -35 0 -38 3 -111 87 -70 82 -125 118 -194 128 -56 9 -77 -4 -77 -45
0 -30 28 -64 95 -117 l40 -31 -85 -1 c-47 0 -133 -8 -193 -16 l-107 -16 -26
30 c-37 44 -82 50 -136 18 -70 -41 -83 -60 -70 -105 16 -51 74 -112 107 -112
49 0 107 46 127 101 9 23 186 49 335 49 148 0 423 -32 423 -50 0 -11 -92 -71
-166 -108 -63 -32 -146 -56 -225 -66 -41 -5 -49 -2 -70 20 -63 67 -148 79
-189 27 -29 -37 -34 -67 -19 -114 17 -50 62 -79 125 -79 35 0 47 6 72 34 16
19 31 39 33 45 2 6 45 18 94 25 50 8 98 17 108 21 21 9 21 7 2 -38 -31 -74
-14 -167 30 -167 44 0 108 130 107 216 l-1 52 57 35 c31 20 69 47 84 61 15 14
33 26 41 26 21 0 309 -84 447 -130 149 -50 220 -79 220 -91 0 -5 -19 -9 -42
-9 -63 0 -167 -19 -200 -36 -53 -27 -108 -91 -108 -125 0 -25 6 -32 37 -45 31
-13 46 -14 95 -4 61 12 235 78 324 123 l50 25 110 -65 c60 -37 128 -81 152
-99 45 -34 72 -35 72 -3 0 15 -126 108 -224 164 -10 6 -25 40 -37 85 -30 113
-70 187 -149 273 -63 67 -76 77 -106 77 -67 0 -69 -64 -7 -202 14 -31 34 -65
44 -74 34 -30 20 -34 -34 -10 -29 12 -76 31 -105 40 -28 10 -52 23 -52 30 0
21 -114 136 -193 194 l-78 58 -42 105 c-50 124 -92 193 -152 248 -44 41 -77
51 -91 30z m149 -197 c56 -108 56 -126 1 -67 -48 51 -104 154 -104 190 1 30
60 -41 103 -123z m-532 -134 c21 -12 53 -39 70 -61 30 -38 31 -39 8 -32 -29 8
-120 68 -144 95 -17 19 -17 20 5 20 12 0 40 -10 61 -22z m425 -9 c60 -15 40
-29 -43 -29 -67 0 -118 14 -108 30 8 13 96 13 151 -1z m744 -201 c34 -40 72
-93 85 -118 26 -51 47 -120 36 -120 -3 0 -34 28 -68 63 -41 41 -72 84 -91 127
-34 74 -47 120 -33 120 5 0 37 -33 71 -72z m-956 -240 c-15 -50 -33 -88 -43
-88 -10 0 -2 37 19 83 16 33 34 36 24 5z m956 -57 c0 -11 -144 -72 -236 -101
-37 -11 -77 -17 -91 -14 l-24 6 23 25 c51 55 77 66 187 79 139 15 141 15 141
5z"/>
<path d="M1905 5169 c-33 -17 -86 -47 -119 -66 l-58 -36 -72 18 c-119 29 -164
29 -277 5 -117 -25 -155 -41 -164 -70 -7 -23 8 -56 34 -69 27 -15 178 -32 225
-25 l41 6 -65 -60 c-78 -72 -82 -74 -190 -100 -47 -11 -128 -40 -181 -64 l-96
-45 -79 13 c-141 23 -266 15 -343 -24 -90 -43 -7 -114 134 -114 41 -1 75 -4
74 -7 0 -3 -34 -33 -76 -65 -41 -33 -104 -94 -140 -137 -59 -72 -66 -77 -89
-69 -38 15 -87 12 -112 -6 -44 -31 -69 -146 -39 -185 22 -29 57 -41 97 -34 72
12 120 70 120 144 0 33 8 50 49 98 60 72 149 158 155 152 3 -3 -2 -25 -11 -50
-30 -82 3 -127 69 -93 62 31 95 82 137 212 l28 87 124 63 c68 34 142 65 164
69 l40 6 -116 -119 c-114 -118 -234 -257 -297 -345 -32 -44 -36 -47 -105 -59
-115 -20 -171 -45 -217 -97 -60 -68 -52 -113 22 -113 20 0 62 11 93 24 30 14
55 24 55 22 0 -2 -18 -41 -39 -87 -22 -46 -54 -126 -71 -176 -31 -89 -34 -93
-62 -93 -19 0 -40 -10 -59 -29 -24 -25 -29 -38 -29 -80 0 -98 32 -128 124
-115 67 9 96 38 96 97 0 31 -8 56 -25 81 l-25 37 26 77 c55 166 157 349 293
525 52 68 54 66 65 -53 9 -96 -6 -208 -39 -296 -25 -67 -28 -71 -68 -82 -90
-24 -129 -88 -97 -158 31 -70 109 -85 178 -34 53 38 63 81 33 143 l-21 44 33
101 33 101 35 -40 c50 -59 138 -83 153 -42 16 41 -83 178 -147 204 -17 7 -33
13 -35 15 -2 1 -7 39 -12 85 -5 46 -12 94 -16 107 -5 19 20 49 172 203 162
165 334 323 341 315 2 -1 -16 -47 -38 -101 -38 -91 -41 -104 -36 -162 6 -64
24 -110 51 -132 25 -21 73 4 96 50 23 45 46 181 55 333 l7 108 73 47 c41 26
112 67 159 91 57 30 85 50 83 60 -4 26 -39 22 -102 -11z m-287 -129 l27 -7
-29 -12 c-16 -6 -64 -21 -106 -32 -66 -17 -86 -18 -151 -9 -92 13 -105 25 -48
41 131 37 225 43 307 19z m10 -235 c-10 -115 -26 -203 -45 -239 -15 -28 -16
-29 -29 -12 -27 37 -28 102 -3 169 30 82 70 167 78 167 4 0 3 -38 -1 -85z
m-759 -174 c35 -2 15 -16 -41 -30 -53 -13 -183 -14 -213 -1 -19 7 -19 8 -1 15
50 21 110 24 255 16z m-25 -210 c-28 -53 -70 -98 -80 -88 -9 9 31 86 68 132
43 51 50 25 12 -44z m-94 -296 c-15 -19 -147 -85 -169 -85 -11 0 -5 11 20 36
36 36 94 63 138 64 20 0 21 -2 11 -15z m440 -125 c0 -17 -34 9 -58 44 -12 18
-22 36 -22 42 1 12 80 -73 80 -86z"/>
<path d="M4413 4328 c-32 -35 -53 -84 -53 -122 0 -26 7 -40 31 -60 32 -27 34
-28 97 -30 33 -1 45 -8 78 -46 89 -104 171 -234 225 -360 17 -41 38 -90 46
-108 23 -53 53 -145 49 -149 -8 -9 -134 61 -202 112 -83 62 -177 180 -164 205
8 14 13 71 11 113 -1 10 -14 32 -30 48 -43 43 -101 41 -147 -5 -29 -29 -34
-41 -34 -80 0 -87 37 -126 118 -126 31 0 41 -5 55 -29 10 -17 40 -55 68 -85
28 -31 47 -56 43 -57 -94 -8 -140 -28 -164 -73 -14 -26 -14 -28 9 -47 38 -31
170 -19 239 23 l32 20 83 -40 c45 -22 89 -42 98 -45 25 -8 136 -482 153 -652
6 -59 6 -60 -11 -35 -111 155 -153 192 -237 211 -76 17 -100 2 -94 -56 3 -26
16 -57 33 -80 31 -40 189 -171 274 -225 l53 -35 -6 -130 c-4 -71 -9 -156 -13
-188 -6 -57 -5 -59 18 -55 18 2 25 11 30 38 6 31 18 180 19 237 0 13 27 49 70
92 74 75 108 132 146 245 31 91 31 131 0 151 -22 15 -27 15 -55 1 -38 -20 -96
-89 -138 -164 -18 -31 -33 -50 -33 -42 0 8 -6 56 -14 107 -13 86 -13 95 5 130
27 55 58 183 65 274 4 43 10 79 15 79 13 0 127 148 164 214 44 79 65 167 46
190 -8 9 -21 16 -31 16 -31 0 -100 -60 -140 -121 l-39 -60 -5 33 c-3 18 -10
67 -16 108 -5 41 -22 115 -37 163 l-27 88 26 22 c73 62 57 160 -35 210 -59 32
-105 14 -133 -51 -26 -64 8 -160 64 -180 22 -8 31 -21 49 -78 24 -75 57 -224
50 -230 -2 -2 -17 14 -33 36 -61 82 -124 73 -124 -19 0 -58 36 -130 109 -219
l56 -67 -6 -90 c-8 -99 -34 -234 -48 -248 -5 -5 -15 23 -25 70 -29 135 -96
374 -132 469 -19 51 -34 96 -34 101 0 4 14 44 31 88 39 100 44 190 14 250 -27
55 -66 60 -94 13 -11 -18 -23 -53 -27 -78 -11 -86 -13 -86 -56 -13 -43 71
-114 169 -156 214 -19 22 -22 31 -13 47 32 60 2 130 -68 161 -62 26 -73 26
-98 -1z m477 -400 c12 -42 5 -89 -21 -155 l-12 -28 -8 35 c-10 43 11 190 27
190 2 0 8 -19 14 -42z m172 -344 c14 -27 29 -67 33 -89 l7 -40 -27 35 c-50 65
-83 158 -52 148 6 -3 24 -27 39 -54z m244 -38 c-39 -80 -122 -182 -111 -136
22 84 132 254 143 220 2 -6 -12 -44 -32 -84z m-687 -66 c-8 -5 -40 -12 -70
-15 -50 -6 -53 -5 -35 9 12 10 39 16 70 16 36 -1 46 -3 35 -10z m250 -649 c19
-11 125 -151 151 -200 10 -19 10 -22 -2 -16 -40 24 -179 139 -215 178 -42 46
-49 58 -37 70 6 6 67 -13 103 -32z m411 -82 c-32 -88 -62 -138 -110 -184 -37
-36 -39 -22 -9 79 23 78 42 110 103 174 52 55 56 39 16 -69z"/>
<path d="M2303 4256 c-223 -51 -366 -250 -350 -486 5 -72 12 -97 47 -167 38
-78 50 -90 263 -289 451 -421 448 -417 455 -569 5 -124 -18 -187 -102 -271
-73 -73 -143 -103 -256 -111 -132 -10 -246 40 -321 141 -46 61 -69 130 -76
229 -3 42 -10 77 -14 77 -20 0 -51 -185 -48 -285 3 -104 12 -116 124 -170 152
-72 391 -93 526 -47 82 28 143 66 198 123 141 147 171 438 63 610 -16 25 -163
170 -326 323 -164 153 -311 297 -327 319 -62 86 -75 220 -31 319 59 134 226
211 385 178 113 -23 210 -119 223 -221 6 -48 19 -65 26 -33 2 9 2 84 0 165
l-3 149 -57 0 c-31 0 -75 5 -97 10 -74 18 -236 21 -302 6z"/>
<path d="M2875 3510 c-90 -13 -225 -58 -225 -75 0 -18 -5 -18 61 2 34 10 90
17 150 17 91 1 99 -1 170 -36 76 -38 189 -140 189 -171 0 -8 -91 -234 -203
-503 -112 -269 -264 -635 -338 -813 -118 -286 -139 -330 -181 -376 -48 -53
-95 -79 -160 -90 -21 -3 -38 -10 -38 -15 0 -6 105 -10 270 -10 149 0 270 4
270 8 0 4 -19 13 -43 19 -23 7 -52 23 -65 36 -46 49 -42 72 64 346 54 139 104
260 112 267 11 12 77 14 379 12 l365 -3 77 -225 c89 -257 120 -333 197 -479
168 -318 377 -509 616 -561 107 -24 358 7 358 44 0 9 -14 11 -62 5 -180 -22
-377 74 -528 256 -115 140 -215 314 -303 530 -25 61 -136 369 -248 685 -216
615 -253 708 -325 832 -84 142 -203 249 -315 282 -65 20 -171 26 -244 16z
m456 -457 c17 -37 89 -240 161 -451 104 -307 127 -386 117 -393 -17 -11 -640
-11 -657 0 -10 6 26 110 153 437 92 236 171 439 176 452 5 12 11 22 14 22 3 0
19 -30 36 -67z"/>
<path d="M285 3450 c-4 -6 -9 -72 -12 -147 l-6 -137 -75 -80 c-75 -80 -109
-140 -145 -251 -23 -69 -26 -96 -14 -122 13 -28 44 -35 79 -17 34 17 106 107
138 172 l24 47 17 -109 c15 -92 15 -112 4 -130 -24 -37 -52 -149 -65 -254 -10
-86 -17 -108 -37 -130 -155 -167 -245 -402 -153 -402 32 0 98 58 136 121 l39
62 18 -114 c10 -63 31 -151 46 -196 l27 -82 -32 -28 c-47 -42 -54 -92 -20
-143 33 -51 66 -72 111 -72 44 0 72 23 86 73 21 67 -11 148 -67 169 -13 5 -30
26 -39 47 -17 39 -65 227 -65 252 0 8 18 -7 41 -33 31 -35 48 -46 70 -46 91 0
46 175 -78 302 l-46 47 7 92 c8 108 32 239 45 252 6 6 12 -1 17 -19 53 -235
93 -373 146 -512 l40 -103 -32 -87 c-37 -102 -42 -184 -15 -249 39 -97 111
-51 122 79 3 32 9 58 13 58 4 0 26 -30 48 -67 22 -38 70 -105 106 -150 l66
-82 -11 -43 c-16 -57 1 -95 56 -125 71 -38 91 -39 124 -5 37 41 59 114 42 145
-21 38 -57 57 -111 58 -48 2 -53 4 -101 58 -28 31 -73 90 -100 131 -84 127
-233 449 -216 467 21 20 212 -102 284 -181 76 -83 93 -109 82 -127 -5 -7 -9
-40 -9 -72 0 -51 4 -62 29 -88 42 -41 97 -41 146 2 31 28 35 37 35 79 0 27 -4
60 -10 74 -12 32 -58 56 -107 56 -33 0 -42 6 -68 43 -16 23 -47 61 -67 83
l-38 41 49 7 c27 3 64 17 82 29 27 18 34 29 34 57 0 29 -4 35 -30 42 -56 16
-188 -9 -224 -43 -19 -18 -22 -18 -102 21 -46 22 -91 40 -100 40 -13 0 -24 26
-48 113 -58 210 -127 546 -119 581 2 11 25 -13 68 -71 71 -96 122 -131 205
-141 54 -6 75 9 75 50 0 40 -20 75 -72 124 -52 50 -221 180 -262 201 l-29 15
5 189 c6 178 5 189 -13 189 -10 0 -21 -5 -24 -10z m-55 -477 c-12 -43 -35 -98
-50 -123 -36 -57 -93 -116 -98 -101 -5 14 34 133 61 186 25 51 100 141 105
127 2 -6 -6 -46 -18 -89z m221 -45 c102 -79 179 -156 179 -179 0 -15 -28 -10
-79 12 -38 16 -59 36 -108 102 -33 45 -66 92 -72 105 -11 21 -11 23 6 14 10
-6 43 -30 74 -54z m-271 -798 c-22 -57 -65 -124 -99 -154 -20 -18 -21 -18 -21
-1 0 47 130 259 138 224 1 -9 -6 -40 -18 -69z m710 10 c0 -9 -62 -30 -92 -30
-36 0 -26 19 14 28 58 13 78 14 78 2z m-545 -62 c36 -56 56 -118 36 -118 -21
0 -81 116 -81 156 0 23 8 16 45 -38z m207 -338 c-2 -30 -9 -66 -14 -80 -9 -24
-10 -24 -21 -5 -16 29 -12 114 8 160 l18 40 7 -30 c3 -16 4 -55 2 -85z"/>
<path d="M974 1008 c-10 -16 40 -58 149 -122 101 -60 97 -54 136 -180 27 -86
73 -155 155 -234 68 -66 100 -77 131 -45 13 12 15 26 11 55 -8 49 -58 161 -92
205 l-25 33 53 -21 c29 -12 77 -29 106 -37 28 -8 52 -19 52 -23 0 -29 155
-171 253 -231 28 -18 47 -37 47 -48 0 -31 60 -162 108 -233 48 -74 114 -130
147 -125 17 3 20 11 23 59 2 48 -2 66 -33 124 -19 37 -34 69 -32 71 1 2 43
-12 92 -31 50 -18 131 -42 180 -51 102 -21 115 -27 115 -60 0 -13 13 -38 29
-56 27 -30 34 -33 80 -31 65 3 108 25 128 68 15 31 15 36 -4 72 -37 71 -136
100 -200 58 -17 -12 -41 -18 -63 -16 -49 4 -217 49 -249 66 l-26 14 38 1 c41
0 100 21 112 40 15 24 -5 58 -48 79 -53 26 -155 28 -240 6 -32 -8 -66 -15 -76
-15 -40 0 -321 208 -282 210 8 0 71 -16 140 -34 146 -40 293 -71 419 -87 l89
-11 72 -79 c40 -44 89 -88 109 -98 44 -22 113 -35 141 -26 52 16 28 86 -49
141 -28 20 -50 40 -50 45 0 5 33 9 73 9 41 0 124 9 186 20 l112 20 24 -29 c45
-53 113 -49 179 12 43 40 38 80 -15 141 -30 34 -48 46 -68 46 -38 0 -90 -38
-113 -81 -18 -35 -22 -37 -111 -55 -114 -23 -442 -26 -582 -5 l-89 14 39 33
c70 60 230 133 324 149 80 14 85 14 98 -4 23 -33 78 -61 121 -61 118 0 140
160 29 211 -71 32 -110 21 -148 -42 -25 -41 -31 -44 -114 -54 -27 -4 -67 -13
-87 -20 -21 -7 -38 -11 -38 -10 0 1 7 19 15 39 19 45 22 115 6 144 -16 30 -55
28 -80 -4 -32 -41 -61 -130 -61 -188 l0 -52 -70 -48 c-39 -27 -74 -56 -79 -65
-9 -15 -16 -14 -94 2 -182 37 -607 168 -607 186 0 4 47 13 105 20 87 11 112
18 150 43 121 80 124 168 4 168 -57 0 -152 -33 -305 -106 l-113 -54 -68 37
c-37 20 -105 61 -151 90 -85 54 -105 62 -118 41z m786 -67 c0 -13 -74 -78 -96
-84 -47 -14 -143 -27 -193 -26 l-56 1 75 35 c141 68 270 103 270 74z m646
-130 c-21 -40 -41 -52 -33 -19 4 13 14 42 24 64 17 38 17 38 21 12 2 -15 -4
-40 -12 -57z m-946 -221 c31 -62 52 -130 40 -130 -4 0 -37 33 -73 73 -69 77
-112 150 -123 207 l-7 35 68 -65 c37 -37 79 -89 95 -120z m1152 -196 c20 -14
44 -34 54 -45 16 -18 16 -19 -5 -19 -45 0 -102 39 -151 103 -14 18 -13 18 25
3 22 -10 56 -28 77 -42z m-300 -25 c17 -9 18 -13 7 -20 -20 -12 -107 -11 -154
3 -38 11 -39 12 -15 19 39 11 139 10 162 -2z m-160 -214 c40 -85 35 -98 -18
-41 -39 42 -115 177 -114 202 1 22 106 -107 132 -161z"/>
</g>
</svg>
